<?xml version="1.0" encoding="UTF-8" standalone="no"?>
<!-- Created with Inkscape (http://www.inkscape.org/) -->

<svg
   xmlns:dc="http://purl.org/dc/elements/1.1/"
   xmlns:cc="http://creativecommons.org/ns#"
   xmlns:rdf="http://www.w3.org/1999/02/22-rdf-syntax-ns#"
   xmlns:svg="http://www.w3.org/2000/svg"
   xmlns="http://www.w3.org/2000/svg"
   xmlns:xlink="http://www.w3.org/1999/xlink"
   xmlns:sodipodi="http://sodipodi.sourceforge.net/DTD/sodipodi-0.dtd"
   xmlns:inkscape="http://www.inkscape.org/namespaces/inkscape"
   version="1.1"
   width="821.65625"
   height="221.96875"
   id="svg4723"
   inkscape:version="0.48.2 r9819"
   sodipodi:docname="taxonomyTab.svg">
  <sodipodi:namedview
     pagecolor="#ffffff"
     bordercolor="#666666"
     borderopacity="1"
     objecttolerance="10"
     gridtolerance="10"
     guidetolerance="10"
     inkscape:pageopacity="0"
     inkscape:pageshadow="2"
     inkscape:window-width="1280"
     inkscape:window-height="751"
     id="namedview3839"
     showgrid="false"
     fit-margin-top="0"
     fit-margin-left="0"
     fit-margin-right="0"
     fit-margin-bottom="0"
     inkscape:zoom="0.35517846"
     inkscape:cx="331.94487"
     inkscape:cy="80.017691"
     inkscape:window-x="-4"
     inkscape:window-y="-4"
     inkscape:window-maximized="1"
     inkscape:current-layer="layer1" />
  <defs
     id="defs3">
    <filter
       color-interpolation-filters="sRGB"
       id="filter4142">
      <feGaussianBlur
         id="feGaussianBlur4144"
         stdDeviation="3.9708581" />
    </filter>
    <linearGradient
       x1="1480.2878"
       y1="5124.2783"
       x2="1475.7883"
       y2="4696.8394"
       id="linearGradient4037"
       xlink:href="#linearGradient3974"
       gradientUnits="userSpaceOnUse"
       gradientTransform="translate(4.4993521,508.42709)" />
    <linearGradient
       id="linearGradient3974">
      <stop
         id="stop3976"
         style="stop-color:#000000;stop-opacity:1"
         offset="0" />
      <stop
         id="stop3978"
         style="stop-color:#000000;stop-opacity:0"
         offset="1" />
    </linearGradient>
    <linearGradient
       x1="1471.3695"
       y1="4807.3687"
       x2="1469.1199"
       y2="4602.6475"
       id="linearGradient4039"
       xlink:href="#linearGradient3962"
       gradientUnits="userSpaceOnUse" />
    <linearGradient
       id="linearGradient3962">
      <stop
         id="stop3964"
         style="stop-color:#ffffff;stop-opacity:1"
         offset="0" />
      <stop
         id="stop3966"
         style="stop-color:#ffffff;stop-opacity:0"
         offset="1" />
    </linearGradient>
    <filter
       color-interpolation-filters="sRGB"
       id="filter3958">
      <feGaussianBlur
         id="feGaussianBlur3960"
         stdDeviation="3.7445471" />
    </filter>
    <filter
       color-interpolation-filters="sRGB"
       id="filter3997">
      <feGaussianBlur
         id="feGaussianBlur3999"
         stdDeviation="3.0873328" />
    </filter>
    <linearGradient
       x1="1509.5334"
       y1="4492.1187"
       x2="1509.5334"
       y2="4800.3247"
       id="linearGradient4041"
       xlink:href="#linearGradient4001"
       gradientUnits="userSpaceOnUse"
       gradientTransform="translate(0,503.92774)" />
    <linearGradient
       id="linearGradient4001">
      <stop
         id="stop4003"
         style="stop-color:#ffffff;stop-opacity:1"
         offset="0" />
      <stop
         id="stop4005"
         style="stop-color:#ffffff;stop-opacity:0"
         offset="1" />
    </linearGradient>
    <linearGradient
       x1="1509.5334"
       y1="4492.1187"
       x2="1509.5334"
       y2="4800.3247"
       id="linearGradient4043"
       xlink:href="#linearGradient4001"
       gradientUnits="userSpaceOnUse"
       gradientTransform="translate(0,503.92774)" />
    <linearGradient
       x1="1498.9908"
       y1="4909.7725"
       x2="1492.0819"
       y2="5150.9199"
       id="linearGradient4112"
       xlink:href="#linearGradient4054"
       gradientUnits="userSpaceOnUse"
       gradientTransform="matrix(1,0,0,2.2648522,0,-6294.2897)" />
    <linearGradient
       id="linearGradient4054">
      <stop
         id="stop4056"
         style="stop-color:#ffffff;stop-opacity:1"
         offset="0" />
      <stop
         id="stop4058"
         style="stop-color:#ffffff;stop-opacity:0"
         offset="1" />
    </linearGradient>
  </defs>
  <metadata
     id="metadata4">
    <rdf:RDF>
      <cc:Work
         rdf:about="">
        <dc:format>image/svg+xml</dc:format>
        <dc:type
           rdf:resource="http://purl.org/dc/dcmitype/StillImage" />
        <dc:title></dc:title>
      </cc:Work>
    </rdf:RDF>
  </metadata>
  <g
     transform="translate(-67.375,-225.96875)"
     id="layer1">
    <path
       style="fill:#000000;fill-opacity:1;stroke:#ffffff;stroke-width:8;stroke-miterlimit:4;stroke-opacity:1"
       d="m 135.87821,229.961 684.65763,0 c 35.73794,0 64.50892,22.3 64.50892,50 l 0,113.97694 c 0,27.7 -28.77098,50 -64.50892,50 l -684.65763,0 c -35.73794,0 -64.508924,-22.3 -64.508924,-50 l 0,-113.97694 c 0,-27.7 28.770984,-50 64.508924,-50 z"
       id="rect4349" />
    <g
       style="font-size:40px;font-style:normal;font-weight:normal;line-height:125%;letter-spacing:0px;word-spacing:0px;fill:#ffffff;fill-opacity:1;stroke:none;font-family:Sans"
       id="text4351">
      <path
         d="m 175.83408,341.93912 5.71875,-0.5 c 0.27082,2.29168 0.90103,4.17188 1.89062,5.64062 0.98957,1.46876 2.52603,2.65626 4.60938,3.5625 2.08331,0.90626 4.42706,1.35938 7.03125,1.35938 2.31247,0 4.35414,-0.34375 6.125,-1.03125 1.7708,-0.6875 3.08851,-1.6302 3.95312,-2.82813 0.86455,-1.1979 1.29684,-2.50519 1.29688,-3.92187 -4e-5,-1.43749 -0.4167,-2.6927 -1.25,-3.76563 -0.83337,-1.0729 -2.20837,-1.97394 -4.125,-2.70312 -1.2292,-0.47915 -3.94794,-1.22394 -8.15625,-2.23438 -4.20835,-1.01039 -7.15627,-1.96352 -8.84375,-2.85937 -2.18751,-1.14581 -3.81772,-2.56768 -4.89063,-4.26563 -1.07292,-1.69788 -1.60938,-3.59892 -1.60937,-5.70312 -1e-5,-2.31247 0.65624,-4.47392 1.96875,-6.48438 1.31249,-2.01037 3.22915,-3.53641 5.75,-4.57812 2.52081,-1.04162 5.32289,-1.56246 8.40625,-1.5625 3.39581,4e-5 6.39059,0.54692 8.98437,1.64062 2.59372,1.0938 4.58851,2.70317 5.98438,4.82813 1.39579,2.12504 2.14579,4.53128 2.25,7.21875 l -5.8125,0.4375 c -0.31254,-2.8958 -1.36983,-5.0833 -3.17188,-6.5625 -1.80211,-1.47913 -4.46357,-2.21871 -7.98437,-2.21875 -3.66669,4e-5 -6.33856,0.67191 -8.01563,2.01562 -1.67709,1.34379 -2.51563,2.96358 -2.51562,4.85938 -1e-5,1.64586 0.59373,3.00003 1.78125,4.0625 1.16665,1.06253 4.21352,2.15107 9.14062,3.26562 4.92706,1.11461 8.30726,2.08857 10.14063,2.92188 2.66663,1.22919 4.63538,2.78648 5.90625,4.67187 1.27079,1.88544 1.90621,4.05731 1.90625,6.51563 -4e-5,2.43751 -0.69796,4.73438 -2.09375,6.89062 -1.39587,2.15626 -3.40108,3.83334 -6.01563,5.03125 -2.61461,1.19792 -5.55732,1.79688 -8.82812,1.79688 -4.14586,0 -7.61981,-0.60417 -10.42188,-1.8125 -2.80209,-1.20833 -5.00001,-3.02604 -6.59375,-5.45313 -1.59375,-2.42707 -2.43229,-5.17186 -2.51562,-8.23437 z"
         style="font-size:64px"
         id="path4447" />
      <path
         d="m 220.83408,356.65787 0,-45.8125 6.0625,0 0,18.8125 23.8125,0 0,-18.8125 6.0625,0 0,45.8125 -6.0625,0 0,-21.59375 -23.8125,0 0,21.59375 z"
         style="font-size:64px"
         id="path4449" />
      <path
         d="m 265.05283,334.34537 c -10e-6,-7.60414 2.04166,-13.55726 6.125,-17.85938 4.08332,-4.30204 9.35414,-6.45308 15.8125,-6.45312 4.22913,4e-5 8.04163,1.01046 11.4375,3.03125 3.39579,2.02087 5.98433,4.83858 7.76562,8.45312 1.7812,3.61462 2.67183,7.71357 2.67188,12.29688 -5e-5,4.64585 -0.93755,8.80209 -2.8125,12.46875 -1.87505,3.66667 -4.53129,6.44271 -7.96875,8.32812 -3.43754,1.88542 -7.14587,2.82813 -11.125,2.82813 -4.31252,0 -8.16669,-1.04167 -11.5625,-3.125 -3.39585,-2.08333 -5.96876,-4.92708 -7.71875,-8.53125 -1.75001,-3.60415 -2.62501,-7.41665 -2.625,-11.4375 z m 6.25,0.0937 c -10e-6,5.52085 1.48436,9.8698 4.45312,13.04687 2.96873,3.17709 6.69269,4.76563 11.17188,4.76563 4.56247,0 8.31767,-1.60416 11.26562,-4.8125 2.94788,-3.20832 4.42184,-7.7604 4.42188,-13.65625 -4e-5,-3.72914 -0.63025,-6.98435 -1.89063,-9.76563 -1.26045,-2.78121 -3.1042,-4.93746 -5.53125,-6.46875 -2.42711,-1.53121 -5.15107,-2.29683 -8.17187,-2.29687 -4.29169,4e-5 -7.9844,1.474 -11.07813,4.42187 -3.09376,2.94795 -4.64063,7.86982 -4.64062,14.76563 z"
         style="font-size:64px"
         id="path4451" />
      <path
         d="m 324.64658,356.65787 -12.15625,-45.8125 6.21875,0 6.96875,30.03125 c 0.74998,3.14584 1.39581,6.27084 1.9375,9.375 1.16665,-4.89582 1.85414,-7.71874 2.0625,-8.46875 l 8.71875,-30.9375 7.3125,0 6.5625,23.1875 c 1.64579,5.75001 2.83329,11.15626 3.5625,16.21875 0.58328,-2.89583 1.3437,-6.21874 2.28125,-9.96875 l 7.1875,-29.4375 6.09375,0 -12.5625,45.8125 -5.84375,0 -9.65625,-34.90625 c -0.81253,-2.91663 -1.2917,-4.7083 -1.4375,-5.375 -0.4792,2.1042 -0.92712,3.89587 -1.34375,5.375 l -9.71875,34.90625 z"
         style="font-size:64px"
         id="path4453" />
      <path
         d="m 372.08408,357.43912 13.28125,-47.375 4.5,0 -13.25,47.375 z"
         style="font-size:64px"
         id="path4455" />
      <path
         d="m 394.95908,356.65787 0,-45.8125 6.0625,0 0,18.8125 23.8125,0 0,-18.8125 6.0625,0 0,45.8125 -6.0625,0 0,-21.59375 -23.8125,0 0,21.59375 z"
         style="font-size:64px"
         id="path4457" />
      <path
         d="m 442.05283,356.65787 0,-45.8125 6.0625,0 0,45.8125 z"
         style="font-size:64px"
         id="path4459" />
      <path
         d="m 458.77158,356.65787 0,-45.8125 15.78125,0 c 3.56247,4e-5 6.28122,0.21879 8.15625,0.65625 2.62496,0.60421 4.86455,1.69796 6.71875,3.28125 2.41662,2.0417 4.22391,4.65108 5.42187,7.82812 1.19788,3.17712 1.79683,6.80732 1.79688,10.89063 -5e-5,3.47918 -0.4063,6.56251 -1.21875,9.25 -0.81254,2.68751 -1.85421,4.91146 -3.125,6.67187 -1.27087,1.76042 -2.6615,3.14584 -4.17188,4.15625 -1.51045,1.01042 -3.33336,1.77605 -5.46875,2.29688 -2.13544,0.52083 -4.58856,0.78125 -7.35937,0.78125 z m 6.0625,-5.40625 9.78125,0 c 3.02081,0 5.39059,-0.28125 7.10937,-0.84375 1.71872,-0.5625 3.08851,-1.35416 4.10938,-2.375 1.43746,-1.43749 2.55725,-3.36978 3.35937,-5.79688 0.80205,-2.42706 1.20309,-5.36977 1.20313,-8.82812 -4e-5,-4.79164 -0.7865,-8.47393 -2.35938,-11.04688 -1.57295,-2.57288 -3.4844,-4.29683 -5.73437,-5.17187 -1.62503,-0.62496 -4.23961,-0.93746 -7.84375,-0.9375 l -9.625,0 z"
         style="font-size:64px"
         id="path4461" />
      <path
         d="m 505.14658,356.65787 0,-45.8125 33.125,0 0,5.40625 -27.0625,0 0,14.03125 25.34375,0 0,5.375 -25.34375,0 0,15.59375 28.125,0 0,5.40625 z"
         style="font-size:64px"
         id="path4463" />
      <path
         d="m 577.17783,356.65787 0,-40.40625 -15.09375,0 0,-5.40625 36.3125,0 0,5.40625 -15.15625,0 0,40.40625 z"
         style="font-size:64px"
         id="path4465" />
      <path
         d="m 602.80283,334.34537 c -10e-6,-7.60414 2.04166,-13.55726 6.125,-17.85938 4.08332,-4.30204 9.35414,-6.45308 15.8125,-6.45312 4.22913,4e-5 8.04163,1.01046 11.4375,3.03125 3.39579,2.02087 5.98433,4.83858 7.76562,8.45312 1.7812,3.61462 2.67183,7.71357 2.67188,12.29688 -5e-5,4.64585 -0.93755,8.80209 -2.8125,12.46875 -1.87505,3.66667 -4.53129,6.44271 -7.96875,8.32812 -3.43754,1.88542 -7.14587,2.82813 -11.125,2.82813 -4.31252,0 -8.16669,-1.04167 -11.5625,-3.125 -3.39585,-2.08333 -5.96876,-4.92708 -7.71875,-8.53125 -1.75001,-3.60415 -2.62501,-7.41665 -2.625,-11.4375 z m 6.25,0.0937 c -10e-6,5.52085 1.48436,9.8698 4.45312,13.04687 2.96873,3.17709 6.69269,4.76563 11.17188,4.76563 4.56247,0 8.31767,-1.60416 11.26562,-4.8125 2.94788,-3.20832 4.42184,-7.7604 4.42188,-13.65625 -4e-5,-3.72914 -0.63025,-6.98435 -1.89063,-9.76563 -1.26045,-2.78121 -3.1042,-4.93746 -5.53125,-6.46875 -2.42711,-1.53121 -5.15107,-2.29683 -8.17187,-2.29687 -4.29169,4e-5 -7.9844,1.474 -11.07813,4.42187 -3.09376,2.94795 -4.64063,7.86982 -4.64062,14.76563 z"
         style="font-size:64px"
         id="path4467" />
      <path
         d="m 654.39658,356.65787 0,-45.8125 17.28125,0 c 3.04164,4e-5 5.36455,0.14588 6.96875,0.4375 2.24996,0.37504 4.13538,1.08858 5.65625,2.14062 1.52079,1.05213 2.74475,2.52608 3.67187,4.42188 0.92704,1.89587 1.39059,3.9792 1.39063,6.25 -4e-5,3.89586 -1.23963,7.19273 -3.71875,9.89062 -2.4792,2.69794 -6.95837,4.0469 -13.4375,4.04688 l -11.75,0 0,18.625 z m 6.0625,-24.03125 11.84375,0 c 3.91664,2e-5 6.69788,-0.72914 8.34375,-2.1875 1.6458,-1.45831 2.46871,-3.51039 2.46875,-6.15625 -4e-5,-1.91663 -0.48441,-3.55726 -1.45313,-4.92188 -0.96878,-1.36454 -2.24482,-2.26558 -3.82812,-2.70312 -1.02086,-0.2708 -2.90628,-0.40621 -5.65625,-0.40625 l -11.71875,0 z"
         style="font-size:64px"
         id="path4469" />
      <path
         d="m 733.80283,356.65787 -5.625,0 0,-35.84375 c -1.35419,1.2917 -3.13023,2.58336 -5.32813,3.875 -2.19793,1.29169 -4.17188,2.26044 -5.92187,2.90625 l 0,-5.4375 c 3.14582,-1.47913 5.89582,-3.2708 8.25,-5.375 2.35415,-2.10413 4.02081,-4.14579 5,-6.125 l 3.625,0 z"
         style="font-size:64px"
         id="path4471" />
      <path
         d="m 748.24033,334.06412 c -10e-6,-5.41664 0.55728,-9.77601 1.67187,-13.07813 1.11458,-3.30204 2.77083,-5.84891 4.96875,-7.64062 2.19791,-1.79162 4.96353,-2.68746 8.29688,-2.6875 2.45831,4e-5 4.61456,0.49483 6.46875,1.48437 1.85414,0.98963 3.38539,2.41671 4.59375,4.28125 1.2083,1.86462 2.15622,4.13546 2.84375,6.8125 0.68746,2.67712 1.03121,6.28649 1.03125,10.82813 -4e-5,5.37501 -0.55212,9.71355 -1.65625,13.01562 -1.1042,3.30209 -2.75524,5.85417 -4.95313,7.65625 -2.19794,1.80209 -4.97398,2.70313 -8.32812,2.70313 -4.41668,0 -7.88543,-1.58334 -10.40625,-4.75 -3.02084,-3.81249 -4.53126,-10.02082 -4.53125,-18.625 z m 5.78125,0 c -10e-6,7.52085 0.88019,12.52605 2.64062,15.01562 1.7604,2.48959 3.93228,3.73438 6.51563,3.73438 2.58331,0 4.75518,-1.25 6.51562,-3.75 1.76039,-2.49999 2.6406,-7.49999 2.64063,-15 -3e-5,-7.54164 -0.88024,-12.55205 -2.64063,-15.03125 -1.76044,-2.47913 -3.95314,-3.71871 -6.57812,-3.71875 -2.58335,4e-5 -4.64585,1.09379 -6.1875,3.28125 -1.93751,2.7917 -2.90626,7.94794 -2.90625,15.46875 z"
         style="font-size:64px"
         id="path4473" />
    </g>
  </g>
</svg>
