<?xml version="1.0" encoding="UTF-8" standalone="no"?>
<!-- Created with Inkscape (http://www.inkscape.org/) -->

<svg
   xmlns:dc="http://purl.org/dc/elements/1.1/"
   xmlns:cc="http://creativecommons.org/ns#"
   xmlns:rdf="http://www.w3.org/1999/02/22-rdf-syntax-ns#"
   xmlns:svg="http://www.w3.org/2000/svg"
   xmlns="http://www.w3.org/2000/svg"
   xmlns:xlink="http://www.w3.org/1999/xlink"
   xmlns:sodipodi="http://sodipodi.sourceforge.net/DTD/sodipodi-0.dtd"
   xmlns:inkscape="http://www.inkscape.org/namespaces/inkscape"
   version="1.1"
   width="821.65625"
   height="221.96875"
   id="svg4723"
   inkscape:version="0.48.2 r9819"
   sodipodi:docname="movieTab.svg">
  <sodipodi:namedview
     pagecolor="#ffffff"
     bordercolor="#666666"
     borderopacity="1"
     objecttolerance="10"
     gridtolerance="10"
     guidetolerance="10"
     inkscape:pageopacity="0"
     inkscape:pageshadow="2"
     inkscape:window-width="1280"
     inkscape:window-height="751"
     id="namedview3839"
     showgrid="false"
     fit-margin-top="0"
     fit-margin-left="0"
     fit-margin-right="0"
     fit-margin-bottom="0"
     inkscape:zoom="0.35517846"
     inkscape:cx="331.94487"
     inkscape:cy="80.017691"
     inkscape:window-x="-4"
     inkscape:window-y="-4"
     inkscape:window-maximized="1"
     inkscape:current-layer="layer1" />
  <defs
     id="defs3">
    <filter
       color-interpolation-filters="sRGB"
       id="filter4142">
      <feGaussianBlur
         id="feGaussianBlur4144"
         stdDeviation="3.9708581" />
    </filter>
    <linearGradient
       x1="1480.2878"
       y1="5124.2783"
       x2="1475.7883"
       y2="4696.8394"
       id="linearGradient4037"
       xlink:href="#linearGradient3974"
       gradientUnits="userSpaceOnUse"
       gradientTransform="translate(4.4993521,508.42709)" />
    <linearGradient
       id="linearGradient3974">
      <stop
         id="stop3976"
         style="stop-color:#000000;stop-opacity:1"
         offset="0" />
      <stop
         id="stop3978"
         style="stop-color:#000000;stop-opacity:0"
         offset="1" />
    </linearGradient>
    <linearGradient
       x1="1471.3695"
       y1="4807.3687"
       x2="1469.1199"
       y2="4602.6475"
       id="linearGradient4039"
       xlink:href="#linearGradient3962"
       gradientUnits="userSpaceOnUse" />
    <linearGradient
       id="linearGradient3962">
      <stop
         id="stop3964"
         style="stop-color:#ffffff;stop-opacity:1"
         offset="0" />
      <stop
         id="stop3966"
         style="stop-color:#ffffff;stop-opacity:0"
         offset="1" />
    </linearGradient>
    <filter
       color-interpolation-filters="sRGB"
       id="filter3958">
      <feGaussianBlur
         id="feGaussianBlur3960"
         stdDeviation="3.7445471" />
    </filter>
    <filter
       color-interpolation-filters="sRGB"
       id="filter3997">
      <feGaussianBlur
         id="feGaussianBlur3999"
         stdDeviation="3.0873328" />
    </filter>
    <linearGradient
       x1="1509.5334"
       y1="4492.1187"
       x2="1509.5334"
       y2="4800.3247"
       id="linearGradient4041"
       xlink:href="#linearGradient4001"
       gradientUnits="userSpaceOnUse"
       gradientTransform="translate(0,503.92774)" />
    <linearGradient
       id="linearGradient4001">
      <stop
         id="stop4003"
         style="stop-color:#ffffff;stop-opacity:1"
         offset="0" />
      <stop
         id="stop4005"
         style="stop-color:#ffffff;stop-opacity:0"
         offset="1" />
    </linearGradient>
    <linearGradient
       x1="1509.5334"
       y1="4492.1187"
       x2="1509.5334"
       y2="4800.3247"
       id="linearGradient4043"
       xlink:href="#linearGradient4001"
       gradientUnits="userSpaceOnUse"
       gradientTransform="translate(0,503.92774)" />
    <linearGradient
       x1="1498.9908"
       y1="4909.7725"
       x2="1492.0819"
       y2="5150.9199"
       id="linearGradient4112"
       xlink:href="#linearGradient4054"
       gradientUnits="userSpaceOnUse"
       gradientTransform="matrix(1,0,0,2.2648522,0,-6294.2897)" />
    <linearGradient
       id="linearGradient4054">
      <stop
         id="stop4056"
         style="stop-color:#ffffff;stop-opacity:1"
         offset="0" />
      <stop
         id="stop4058"
         style="stop-color:#ffffff;stop-opacity:0"
         offset="1" />
    </linearGradient>
  </defs>
  <metadata
     id="metadata4">
    <rdf:RDF>
      <cc:Work
         rdf:about="">
        <dc:format>image/svg+xml</dc:format>
        <dc:type
           rdf:resource="http://purl.org/dc/dcmitype/StillImage" />
        <dc:title></dc:title>
      </cc:Work>
    </rdf:RDF>
  </metadata>
  <g
     transform="translate(-67.375,-225.96875)"
     id="layer1">
    <path
       style="fill:#000000;fill-opacity:1;stroke:#ffffff;stroke-width:8;stroke-miterlimit:4;stroke-opacity:1"
       d="m 135.87821,229.961 684.65763,0 c 35.73794,0 64.50892,22.3 64.50892,50 l 0,113.97694 c 0,27.7 -28.77098,50 -64.50892,50 l -684.65763,0 c -35.73794,0 -64.508924,-22.3 -64.508924,-50 l 0,-113.97694 c 0,-27.7 28.770984,-50 64.508924,-50 z"
       id="rect4349" />
    <g
       style="font-size:40px;font-style:normal;font-weight:normal;line-height:125%;letter-spacing:0px;word-spacing:0px;fill:#ffffff;fill-opacity:1;stroke:#ffffff;font-family:Sans;stroke-opacity:1"
       id="text4351">
      <path
         d="m 115.76839,356.65787 0,-45.8125 9.125,0 10.84375,32.4375 c 0.99997,3.02084 1.72914,5.28126 2.1875,6.78125 0.5208,-1.66666 1.3333,-4.11458 2.4375,-7.34375 l 10.96875,-31.875 8.15625,0 0,45.8125 -5.84375,0 0,-38.34375 -13.3125,38.34375 -5.46875,0 -13.25,-39 0,39 z"
         style="font-size:64px;stroke:#ffffff;stroke-opacity:1"
         id="path4413" />
      <path
         d="m 167.48714,334.34537 c -1e-5,-7.60414 2.04166,-13.55726 6.125,-17.85938 4.08332,-4.30204 9.35414,-6.45308 15.8125,-6.45312 4.22913,4e-5 8.04163,1.01046 11.4375,3.03125 3.39579,2.02087 5.98433,4.83858 7.76562,8.45312 1.78121,3.61462 2.67183,7.71357 2.67188,12.29688 -5e-5,4.64585 -0.93755,8.80209 -2.8125,12.46875 -1.87505,3.66667 -4.53129,6.44271 -7.96875,8.32812 -3.43754,1.88542 -7.14587,2.82813 -11.125,2.82813 -4.31252,0 -8.16669,-1.04167 -11.5625,-3.125 -3.39585,-2.08333 -5.96876,-4.92708 -7.71875,-8.53125 -1.75001,-3.60415 -2.62501,-7.41665 -2.625,-11.4375 z m 6.25,0.0937 c -1e-5,5.52085 1.48436,9.8698 4.45312,13.04687 2.96874,3.17709 6.69269,4.76563 11.17188,4.76563 4.56247,0 8.31767,-1.60416 11.26562,-4.8125 2.94788,-3.20832 4.42184,-7.7604 4.42188,-13.65625 -4e-5,-3.72914 -0.63025,-6.98435 -1.89063,-9.76563 -1.26045,-2.78121 -3.1042,-4.93746 -5.53125,-6.46875 -2.42711,-1.53121 -5.15107,-2.29683 -8.17187,-2.29687 -4.29169,4e-5 -7.9844,1.474 -11.07813,4.42187 -3.09376,2.94795 -4.64063,7.86982 -4.64062,14.76563 z"
         style="font-size:64px;stroke:#ffffff;stroke-opacity:1"
         id="path4415" />
      <path
         d="m 219.01839,356.65787 0,-45.8125 6.21875,0 24.0625,35.96875 0,-35.96875 5.8125,0 0,45.8125 -6.21875,0 -24.0625,-36 0,36 z"
         style="font-size:64px;stroke:#ffffff;stroke-opacity:1"
         id="path4417" />
      <path
         d="m 263.26839,341.93912 5.71875,-0.5 c 0.27082,2.29168 0.90103,4.17188 1.89062,5.64062 0.98957,1.46876 2.52603,2.65626 4.60938,3.5625 2.08331,0.90626 4.42706,1.35938 7.03125,1.35938 2.31247,0 4.35414,-0.34375 6.125,-1.03125 1.7708,-0.6875 3.08851,-1.6302 3.95312,-2.82813 0.86455,-1.1979 1.29684,-2.50519 1.29688,-3.92187 -4e-5,-1.43749 -0.4167,-2.6927 -1.25,-3.76563 -0.83337,-1.0729 -2.20837,-1.97394 -4.125,-2.70312 -1.2292,-0.47915 -3.94794,-1.22394 -8.15625,-2.23438 -4.20835,-1.01039 -7.15627,-1.96352 -8.84375,-2.85937 -2.18751,-1.14581 -3.81772,-2.56768 -4.89063,-4.26563 -1.07292,-1.69788 -1.60938,-3.59892 -1.60937,-5.70312 -1e-5,-2.31247 0.65624,-4.47392 1.96875,-6.48438 1.31249,-2.01037 3.22915,-3.53641 5.75,-4.57812 2.52082,-1.04162 5.3229,-1.56246 8.40625,-1.5625 3.39581,4e-5 6.39059,0.54692 8.98437,1.64062 2.59372,1.0938 4.58851,2.70317 5.98438,4.82813 1.39579,2.12504 2.14579,4.53128 2.25,7.21875 l -5.8125,0.4375 c -0.31254,-2.8958 -1.36983,-5.0833 -3.17188,-6.5625 -1.80211,-1.47913 -4.46356,-2.21871 -7.98437,-2.21875 -3.66669,4e-5 -6.33856,0.67191 -8.01563,2.01562 -1.67709,1.34379 -2.51563,2.96358 -2.51562,4.85938 -1e-5,1.64586 0.59374,3.00003 1.78125,4.0625 1.16665,1.06253 4.21352,2.15107 9.14062,3.26562 4.92706,1.11461 8.30726,2.08857 10.14063,2.92188 2.66663,1.22919 4.63538,2.78648 5.90625,4.67187 1.27079,1.88544 1.90621,4.05731 1.90625,6.51563 -4e-5,2.43751 -0.69796,4.73438 -2.09375,6.89062 -1.39587,2.15626 -3.40108,3.83334 -6.01563,5.03125 -2.61461,1.19792 -5.55732,1.79688 -8.82812,1.79688 -4.14585,0 -7.61981,-0.60417 -10.42188,-1.8125 -2.80209,-1.20833 -5.00001,-3.02604 -6.59375,-5.45313 -1.59375,-2.42707 -2.43229,-5.17186 -2.51562,-8.23437 z"
         style="font-size:64px;stroke:#ffffff;stroke-opacity:1"
         id="path4419" />
      <path
         d="m 319.73714,356.65787 0,-40.40625 -15.09375,0 0,-5.40625 36.3125,0 0,5.40625 -15.15625,0 0,40.40625 z"
         style="font-size:64px;stroke:#ffffff;stroke-opacity:1"
         id="path4421" />
      <path
         d="m 347.33089,356.65787 0,-45.8125 33.125,0 0,5.40625 -27.0625,0 0,14.03125 25.34375,0 0,5.375 -25.34375,0 0,15.59375 28.125,0 0,5.40625 z"
         style="font-size:64px;stroke:#ffffff;stroke-opacity:1"
         id="path4423" />
      <path
         d="m 390.04964,356.65787 0,-45.8125 20.3125,0 c 4.0833,4e-5 7.18746,0.4115 9.3125,1.23437 2.12496,0.82296 3.82288,2.27609 5.09375,4.35938 1.27079,2.08337 1.90621,4.38545 1.90625,6.90625 -4e-5,3.25003 -1.05213,5.98961 -3.15625,8.21875 -2.10421,2.22919 -5.3542,3.64585 -9.75,4.25 1.60413,0.77085 2.82288,1.53127 3.65625,2.28125 1.7708,1.62501 3.44788,3.65626 5.03125,6.09375 l 7.96875,12.46875 -7.625,0 -6.0625,-9.53125 c -1.77087,-2.74999 -3.2292,-4.85415 -4.375,-6.3125 -1.14586,-1.45832 -2.1719,-2.47915 -3.07813,-3.0625 -0.90627,-0.58332 -1.82815,-0.98957 -2.76562,-1.21875 -0.68752,-0.14582 -1.81252,-0.21873 -3.375,-0.21875 l -7.03125,0 0,20.34375 z m 6.0625,-25.59375 13.03125,0 c 2.7708,2e-5 4.93747,-0.28644 6.5,-0.85938 1.56246,-0.57289 2.74996,-1.48955 3.5625,-2.75 0.81246,-1.26038 1.21871,-2.63017 1.21875,-4.10937 -4e-5,-2.16663 -0.7865,-3.94788 -2.35938,-5.34375 -1.57295,-1.3958 -4.05732,-2.09371 -7.45312,-2.09375 l -14.5,0 z"
         style="font-size:64px;stroke:#ffffff;stroke-opacity:1"
         id="path4425" />
      <path
         d="m 434.14339,341.93912 5.71875,-0.5 c 0.27082,2.29168 0.90103,4.17188 1.89062,5.64062 0.98957,1.46876 2.52603,2.65626 4.60938,3.5625 2.08331,0.90626 4.42706,1.35938 7.03125,1.35938 2.31247,0 4.35414,-0.34375 6.125,-1.03125 1.7708,-0.6875 3.08851,-1.6302 3.95312,-2.82813 0.86455,-1.1979 1.29684,-2.50519 1.29688,-3.92187 -4e-5,-1.43749 -0.4167,-2.6927 -1.25,-3.76563 -0.83337,-1.0729 -2.20837,-1.97394 -4.125,-2.70312 -1.2292,-0.47915 -3.94794,-1.22394 -8.15625,-2.23438 -4.20835,-1.01039 -7.15627,-1.96352 -8.84375,-2.85937 -2.18751,-1.14581 -3.81772,-2.56768 -4.89063,-4.26563 -1.07292,-1.69788 -1.60938,-3.59892 -1.60937,-5.70312 -1e-5,-2.31247 0.65624,-4.47392 1.96875,-6.48438 1.31249,-2.01037 3.22915,-3.53641 5.75,-4.57812 2.52082,-1.04162 5.3229,-1.56246 8.40625,-1.5625 3.39581,4e-5 6.39059,0.54692 8.98437,1.64062 2.59372,1.0938 4.58851,2.70317 5.98438,4.82813 1.39579,2.12504 2.14579,4.53128 2.25,7.21875 l -5.8125,0.4375 c -0.31254,-2.8958 -1.36983,-5.0833 -3.17188,-6.5625 -1.80211,-1.47913 -4.46356,-2.21871 -7.98437,-2.21875 -3.66669,4e-5 -6.33856,0.67191 -8.01563,2.01562 -1.67709,1.34379 -2.51563,2.96358 -2.51562,4.85938 -1e-5,1.64586 0.59374,3.00003 1.78125,4.0625 1.16665,1.06253 4.21352,2.15107 9.14062,3.26562 4.92706,1.11461 8.30726,2.08857 10.14063,2.92188 2.66663,1.22919 4.63538,2.78648 5.90625,4.67187 1.27079,1.88544 1.90621,4.05731 1.90625,6.51563 -4e-5,2.43751 -0.69796,4.73438 -2.09375,6.89062 -1.39587,2.15626 -3.40108,3.83334 -6.01563,5.03125 -2.61461,1.19792 -5.55732,1.79688 -8.82812,1.79688 -4.14585,0 -7.61981,-0.60417 -10.42188,-1.8125 -2.80209,-1.20833 -5.00001,-3.02604 -6.59375,-5.45313 -1.59375,-2.42707 -2.43229,-5.17186 -2.51562,-8.23437 z"
         style="font-size:64px;stroke:#ffffff;stroke-opacity:1"
         id="path4427" />
      <path
         d="m 508.36214,356.65787 0,-40.40625 -15.09375,0 0,-5.40625 36.3125,0 0,5.40625 -15.15625,0 0,40.40625 z"
         style="font-size:64px;stroke:#ffffff;stroke-opacity:1"
         id="path4429" />
      <path
         d="m 530.79964,356.65787 17.59375,-45.8125 6.53125,0 18.75,45.8125 -6.90625,0 -5.34375,-13.875 -19.15625,0 -5.03125,13.875 z m 13.21875,-18.8125 15.53125,0 -4.78125,-12.6875 c -1.45836,-3.85413 -2.54169,-7.0208 -3.25,-9.5 -0.58336,2.93754 -1.40627,5.8542 -2.46875,8.75 z"
         style="font-size:64px;stroke:#ffffff;stroke-opacity:1"
         id="path4431" />
      <path
         d="m 573.92464,356.65787 17.71875,-23.875 -15.625,-21.9375 7.21875,0 8.3125,11.75 c 1.72914,2.43753 2.95831,4.31253 3.6875,5.625 1.02081,-1.66664 2.22914,-3.40622 3.625,-5.21875 l 9.21875,-12.15625 6.59375,0 -16.09375,21.59375 17.34375,24.21875 -7.5,0 -11.53125,-16.34375 c -0.64586,-0.93749 -1.31253,-1.95832 -2,-3.0625 -1.02086,1.66668 -1.75002,2.81251 -2.1875,3.4375 l -11.5,15.96875 z"
         style="font-size:64px;stroke:#ffffff;stroke-opacity:1"
         id="path4433" />
      <path
         d="m 619.48714,334.34537 c -10e-6,-7.60414 2.04166,-13.55726 6.125,-17.85938 4.08332,-4.30204 9.35414,-6.45308 15.8125,-6.45312 4.22913,4e-5 8.04163,1.01046 11.4375,3.03125 3.39579,2.02087 5.98433,4.83858 7.76562,8.45312 1.78121,3.61462 2.67183,7.71357 2.67188,12.29688 -5e-5,4.64585 -0.93755,8.80209 -2.8125,12.46875 -1.87505,3.66667 -4.53129,6.44271 -7.96875,8.32812 -3.43754,1.88542 -7.14587,2.82813 -11.125,2.82813 -4.31252,0 -8.16669,-1.04167 -11.5625,-3.125 -3.39585,-2.08333 -5.96876,-4.92708 -7.71875,-8.53125 -1.75001,-3.60415 -2.62501,-7.41665 -2.625,-11.4375 z m 6.25,0.0937 c -10e-6,5.52085 1.48436,9.8698 4.45312,13.04687 2.96874,3.17709 6.69269,4.76563 11.17188,4.76563 4.56247,0 8.31767,-1.60416 11.26562,-4.8125 2.94788,-3.20832 4.42184,-7.7604 4.42188,-13.65625 -4e-5,-3.72914 -0.63025,-6.98435 -1.89063,-9.76563 -1.26045,-2.78121 -3.1042,-4.93746 -5.53125,-6.46875 -2.42711,-1.53121 -5.15107,-2.29683 -8.17187,-2.29687 -4.29169,4e-5 -7.9844,1.474 -11.07813,4.42187 -3.09376,2.94795 -4.64063,7.86982 -4.64062,14.76563 z"
         style="font-size:64px;stroke:#ffffff;stroke-opacity:1"
         id="path4435" />
      <path
         d="m 671.01839,356.65787 0,-45.8125 6.21875,0 24.0625,35.96875 0,-35.96875 5.8125,0 0,45.8125 -6.21875,0 -24.0625,-36 0,36 z"
         style="font-size:64px;stroke:#ffffff;stroke-opacity:1"
         id="path4437" />
      <path
         d="m 715.48714,334.34537 c -10e-6,-7.60414 2.04166,-13.55726 6.125,-17.85938 4.08332,-4.30204 9.35414,-6.45308 15.8125,-6.45312 4.22913,4e-5 8.04163,1.01046 11.4375,3.03125 3.39579,2.02087 5.98433,4.83858 7.76562,8.45312 1.78121,3.61462 2.67183,7.71357 2.67188,12.29688 -5e-5,4.64585 -0.93755,8.80209 -2.8125,12.46875 -1.87505,3.66667 -4.53129,6.44271 -7.96875,8.32812 -3.43754,1.88542 -7.14587,2.82813 -11.125,2.82813 -4.31252,0 -8.16669,-1.04167 -11.5625,-3.125 -3.39585,-2.08333 -5.96876,-4.92708 -7.71875,-8.53125 -1.75001,-3.60415 -2.62501,-7.41665 -2.625,-11.4375 z m 6.25,0.0937 c -10e-6,5.52085 1.48436,9.8698 4.45312,13.04687 2.96874,3.17709 6.69269,4.76563 11.17188,4.76563 4.56247,0 8.31767,-1.60416 11.26562,-4.8125 2.94788,-3.20832 4.42184,-7.7604 4.42188,-13.65625 -4e-5,-3.72914 -0.63025,-6.98435 -1.89063,-9.76563 -1.26045,-2.78121 -3.1042,-4.93746 -5.53125,-6.46875 -2.42711,-1.53121 -5.15107,-2.29683 -8.17187,-2.29687 -4.29169,4e-5 -7.9844,1.474 -11.07813,4.42187 -3.09376,2.94795 -4.64063,7.86982 -4.64062,14.76563 z"
         style="font-size:64px;stroke:#ffffff;stroke-opacity:1"
         id="path4439" />
      <path
         d="m 766.89339,356.65787 0,-45.8125 9.125,0 10.84375,32.4375 c 0.99997,3.02084 1.72914,5.28126 2.1875,6.78125 0.5208,-1.66666 1.3333,-4.11458 2.4375,-7.34375 l 10.96875,-31.875 8.15625,0 0,45.8125 -5.84375,0 0,-38.34375 -13.3125,38.34375 -5.46875,0 -13.25,-39 0,39 z"
         style="font-size:64px;stroke:#ffffff;stroke-opacity:1"
         id="path4441" />
      <path
         d="m 833.36214,356.65787 0,-19.40625 -17.65625,-26.40625 7.375,0 9.03125,13.8125 c 1.66665,2.58336 3.21873,5.16669 4.65625,7.75 1.37497,-2.39581 3.04164,-5.09372 5,-8.09375 l 8.875,-13.46875 7.0625,0 -18.28125,26.40625 0,19.40625 z"
         style="font-size:64px;stroke:#ffffff;stroke-opacity:1"
         id="path4443" />
    </g>
  </g>
</svg>
