<?xml version="1.0" encoding="UTF-8" standalone="no"?>
<!-- Created with Inkscape (http://www.inkscape.org/) -->

<svg
   xmlns:dc="http://purl.org/dc/elements/1.1/"
   xmlns:cc="http://creativecommons.org/ns#"
   xmlns:rdf="http://www.w3.org/1999/02/22-rdf-syntax-ns#"
   xmlns:svg="http://www.w3.org/2000/svg"
   xmlns="http://www.w3.org/2000/svg"
   xmlns:sodipodi="http://sodipodi.sourceforge.net/DTD/sodipodi-0.dtd"
   xmlns:inkscape="http://www.inkscape.org/namespaces/inkscape"
   width="806.28125"
   height="300.5625"
   id="svg2"
   version="1.1"
   inkscape:version="0.48.2 r9819"
   sodipodi:docname="Nuovo documento 1">
  <defs
     id="defs4" />
  <sodipodi:namedview
     id="base"
     pagecolor="#ffffff"
     bordercolor="#666666"
     borderopacity="1.0"
     inkscape:pageopacity="0.0"
     inkscape:pageshadow="2"
     inkscape:zoom="0.35"
     inkscape:cx="309.5625"
     inkscape:cy="54.575317"
     inkscape:document-units="px"
     inkscape:current-layer="layer1"
     showgrid="false"
     fit-margin-top="0"
     fit-margin-left="0"
     fit-margin-right="0"
     fit-margin-bottom="0"
     inkscape:window-width="1191"
     inkscape:window-height="858"
     inkscape:window-x="30"
     inkscape:window-y="30"
     inkscape:window-maximized="0" />
  <metadata
     id="metadata7">
    <rdf:RDF>
      <cc:Work
         rdf:about="">
        <dc:format>image/svg+xml</dc:format>
        <dc:type
           rdf:resource="http://purl.org/dc/dcmitype/StillImage" />
        <dc:title></dc:title>
      </cc:Work>
    </rdf:RDF>
  </metadata>
  <g
     inkscape:label="Livello 1"
     inkscape:groupmode="layer"
     id="layer1"
     transform="translate(-65.4375,-286.375)">
    <path
       style="fill:#000000;fill-opacity:1;stroke:#ffffff;stroke-width:12;stroke-linecap:round;stroke-linejoin:round;stroke-miterlimit:4;stroke-dashoffset:0;stroke-opacity:1"
       d="m 111.42857,292.36218 714.28571,0 c 22.16,0 40,17.84 40,40 l 0,208.57144 c 0,22.16 -17.84,40 -40,40 l -714.28571,0 c -22.159996,0 -39.999996,-17.84 -39.999996,-40 l 0,-208.57144 c 0,-22.16 17.84,-40 39.999996,-40 z"
       id="rect2985" />
    <g
       style="font-size:40px;font-style:normal;font-weight:normal;line-height:125%;letter-spacing:0px;word-spacing:0px;fill:#ffffff;fill-opacity:1;stroke:none;font-family:Sans"
       id="text3755" />
    <g
       style="font-size:40px;font-style:normal;font-weight:normal;line-height:125%;letter-spacing:0px;word-spacing:0px;fill:#ffffff;fill-opacity:1;stroke:none;font-family:Sans"
       id="text3759">
      <path
         d="m 229.53682,472.36218 0,-64.42383 12.83203,0 15.24902,45.61524 c 1.40622,4.24806 2.43161,7.42677 3.07618,9.53613 0.73238,-2.34374 1.87496,-5.78612 3.42773,-10.32715 l 15.42481,-44.82422 11.46972,0 0,64.42383 -8.21777,0 0,-53.9209 -18.7207,53.9209 -7.69043,0 -18.63282,-54.84375 0,54.84375 z"
         style="font-size:90px;fill:#ffffff"
         id="path3766" />
      <path
         d="m 302.26631,440.98523 c 0,-10.69332 2.87109,-19.06489 8.61328,-25.11475 5.74217,-6.04974 13.15427,-9.07464 22.23633,-9.0747 5.94723,6e-5 11.30855,1.42096 16.08399,4.26269 4.77533,2.84186 8.41546,6.80426 10.92041,11.88721 2.50481,5.08305 3.75725,10.84721 3.75732,17.29248 -7e-5,6.53323 -1.31842,12.37795 -3.95508,17.53418 -2.63678,5.15626 -6.37212,9.06006 -11.20605,11.71142 -4.83403,2.65137 -10.04887,3.97705 -15.64453,3.97706 -6.06449,-1e-5 -11.4844,-1.46485 -16.25977,-4.39454 -4.7754,-2.92968 -8.39357,-6.9287 -10.85449,-11.99707 -2.46095,-5.06834 -3.69141,-10.42966 -3.69141,-16.08398 z m 8.78906,0.13184 c -10e-6,7.76369 2.08739,13.87941 6.26221,18.34716 4.17478,4.46779 9.41159,6.70167 15.71045,6.70166 6.41597,1e-5 11.69673,-2.25585 15.84229,-6.76757 4.14545,-4.51171 6.2182,-10.91307 6.21826,-19.20411 -6e-5,-5.2441 -0.88629,-9.82173 -2.65869,-13.73291 -1.77252,-3.91108 -4.36529,-6.9433 -7.77832,-9.09668 -3.41313,-2.15326 -7.2437,-3.22992 -11.4917,-3.22998 -6.03519,6e-5 -11.22806,2.07281 -15.57862,6.21827 -4.3506,4.14555 -6.52589,11.06693 -6.52588,20.76416 z"
         style="font-size:90px;fill:#ffffff"
         id="path3768" />
      <path
         d="m 374.73213,472.36218 0,-64.42383 8.74512,0 33.83789,50.58106 0,-50.58106 8.17383,0 0,64.42383 -8.74512,0 -33.83789,-50.625 0,50.625 z"
         style="font-size:90px;fill:#ffffff"
         id="path3770" />
      <path
         d="m 436.95869,451.66394 8.042,-0.70312 c 0.38084,3.22267 1.26707,5.86671 2.65869,7.93212 1.39158,2.06545 3.55223,3.73537 6.48193,5.00977 2.92966,1.27442 6.22556,1.91163 9.8877,1.91162 3.25192,1e-5 6.12301,-0.48339 8.61328,-1.45019 2.49019,-0.96679 4.34322,-2.29247 5.55908,-3.97706 1.21577,-1.68455 1.82368,-3.52293 1.82373,-5.51513 -5e-5,-2.02147 -0.58598,-3.7866 -1.75781,-5.29541 -1.17192,-1.50877 -3.10551,-2.77586 -5.80078,-3.80127 -1.72856,-0.6738 -5.55179,-1.72116 -11.46973,-3.14209 -5.91799,-1.42087 -10.06349,-2.7612 -12.43652,-4.021 -3.07619,-1.61129 -5.36867,-3.6108 -6.87744,-5.99853 -1.5088,-2.38766 -2.26319,-5.06099 -2.26319,-8.02002 0,-3.2519 0.92285,-6.29145 2.76856,-9.11865 1.84569,-2.82709 4.541,-4.97309 8.08593,-6.43799 3.54491,-1.46478 7.48533,-2.1972 11.82129,-2.19727 4.77536,7e-5 8.98678,0.76911 12.63428,2.30713 3.64742,1.53815 6.45259,3.80133 8.41553,6.78955 1.96284,2.98834 3.01752,6.37212 3.16406,10.15137 l -8.17383,0.61523 c -0.4395,-4.07221 -1.92631,-7.14838 -4.46045,-9.22851 -2.53421,-2.08002 -6.27689,-3.12006 -11.22802,-3.12012 -5.15628,6e-5 -8.9136,0.94488 -11.27198,2.83447 -2.35841,1.8897 -3.53761,4.16753 -3.53759,6.8335 -2e-5,2.3145 0.83494,4.21879 2.50488,5.71289 1.6406,1.49418 5.92527,3.02494 12.854,4.59228 6.92868,1.56742 11.68209,2.93705 14.26026,4.10889 3.74995,1.72855 6.5185,3.91849 8.30566,6.56983 1.78706,2.65139 2.68061,5.70558 2.68066,9.16259 -5e-5,3.42775 -0.9815,6.65773 -2.94433,9.68994 -1.96294,3.03224 -4.78276,5.39063 -8.45947,7.0752 -3.6768,1.68457 -7.81498,2.52685 -12.41456,2.52686 -5.8301,-1e-5 -10.71535,-0.84961 -14.65576,-2.54883 -3.94044,-1.69922 -7.03126,-4.25537 -9.27246,-7.66846 -2.24121,-3.41307 -3.42041,-7.27293 -3.5376,-11.57959 z"
         style="font-size:90px;fill:#ffffff"
         id="path3772" />
      <path
         d="m 516.36787,472.36218 0,-56.82129 -21.22558,0 0,-7.60254 51.06445,0 0,7.60254 -21.31348,0 0,56.82129 z"
         style="font-size:90px;fill:#ffffff"
         id="path3774" />
      <path
         d="m 555.17159,472.36218 0,-64.42383 46.58203,0 0,7.60254 -38.05664,0 0,19.73145 35.63964,0 0,7.55859 -35.63964,0 0,21.92871 39.55078,0 0,7.60254 z"
         style="font-size:90px;fill:#ffffff"
         id="path3776" />
      <path
         d="m 615.24483,472.36218 0,-64.42383 28.56445,0 c 5.74215,7e-5 10.10738,0.57868 13.0957,1.73584 2.98823,1.15729 5.37593,3.20075 7.16309,6.13038 1.78705,2.92974 2.6806,6.16704 2.68066,9.71191 -6e-5,4.57035 -1.47955,8.42289 -4.43847,11.55762 -2.95904,3.13479 -7.52935,5.12698 -13.71094,5.97656 2.25582,1.08401 3.96968,2.15335 5.1416,3.20801 2.49019,2.28518 4.84858,5.14162 7.0752,8.56933 l 11.20605,17.53418 -10.72266,0 -8.52539,-13.40332 c -2.49027,-3.86717 -4.54105,-6.82615 -6.15234,-8.87695 -1.61136,-2.05076 -3.05423,-3.4863 -4.32861,-4.30664 -1.27445,-0.82029 -2.57084,-1.39158 -3.88916,-1.71387 -0.96683,-0.20505 -2.54886,-0.30759 -4.7461,-0.30762 l -9.88769,0 0,28.6084 z m 8.52539,-35.99121 18.32519,0 c 3.89645,4e-5 6.94332,-0.40279 9.14063,-1.20849 2.19722,-0.80563 3.86714,-2.09469 5.00976,-3.86719 1.14253,-1.77242 1.71382,-3.69869 1.71387,-5.77881 -5e-5,-3.04683 -1.106,-5.55171 -3.31787,-7.51465 -2.21196,-1.96283 -5.70561,-2.94428 -10.48096,-2.94433 l -20.39062,0 z"
         style="font-size:90px;fill:#ffffff"
         id="path3778" />
      <path
         d="m 731.69991,472.36218 -7.91016,0 0,-50.40527 c -1.90432,1.81645 -4.40188,3.63286 -7.49268,5.44922 -3.09083,1.81645 -5.86671,3.17875 -8.32763,4.08691 l 0,-7.64648 c 4.42381,-2.08003 8.29099,-4.59956 11.60156,-7.5586 3.31052,-2.95892 5.65427,-5.83001 7.03125,-8.61328 l 5.09766,0 z"
         style="font-size:90px;fill:#ffffff"
         id="path3780" />
    </g>
  </g>
</svg>
